<svg xmlns="http://www.w3.org/2000/svg" width="800" height="500" viewBox="0 0 800 500" role="img" aria-labelledby="title desc">
<title id="title">Optree LOD point-cloud streaming</title>
<desc id="desc">Concept diagram: large source point clouds are organized into a hierarchy by Optree and progressively streamed to a client for view-dependent 3D visualization.</desc>
<defs><linearGradient id="bg" x2="1" y2="1"><stop stop-color="#0e233b"/><stop offset="1" stop-color="#091526"/></linearGradient><marker id="arrow" markerWidth="8" markerHeight="8" refX="6" refY="4" orient="auto"><path d="M0 0 8 4 0 8" fill="none" stroke="#38bdf8" stroke-width="1.4"/></marker><pattern id="grid" width="32" height="32" patternUnits="userSpaceOnUse"><path d="M32 0H0V32" fill="none" stroke="#7dd3fc" stroke-opacity=".06"/></pattern></defs>
<rect width="800" height="500" rx="16" fill="url(#bg)"/><rect width="800" height="500" rx="16" fill="url(#grid)"/>
<g font-family="-apple-system,BlinkMacSystemFont,Arial,sans-serif">
<text x="40" y="46" font-size="16" fill="#7dd3fc" letter-spacing="3">OPTIMIZE3D / OPTREE</text>
<text x="40" y="88" font-size="30" font-weight="700" fill="#f8fafc">BILLION-SCALE POINT CLOUDS</text>
<text x="40" y="118" font-size="18" fill="#a5b7ca">Hierarchical LOD. Progressive streaming.</text>
<rect x="32" y="154" width="212" height="225" rx="12" fill="#102941" stroke="#284c69"/>
<rect x="294" y="154" width="212" height="225" rx="12" fill="#102941" stroke="#38bdf8"/>
<rect x="556" y="154" width="212" height="225" rx="12" fill="#102941" stroke="#284c69"/>
<text x="52" y="186" fill="#7dd3fc" font-size="15">01 / SOURCE</text><text x="314" y="186" fill="#7dd3fc" font-size="15">02 / OPTREE LOD</text><text x="576" y="186" fill="#7dd3fc" font-size="15">03 / CLIENT VIEW</text>
<g transform="translate(54 215)"><circle cx="23" cy="77" r="1.45" fill="#a3e635" opacity=".8"/><circle cx="21" cy="84" r="1.45" fill="#38bdf8" opacity=".8"/><circle cx="22" cy="91" r="1.45" fill="#7dd3fc" opacity=".8"/><circle cx="23" cy="98" r="1.45" fill="#a3e635" opacity=".8"/><circle cx="21" cy="105" r="1.45" fill="#38bdf8" opacity=".8"/><circle cx="28" cy="21" r="1.45" fill="#7dd3fc" opacity=".8"/><circle cx="29" cy="28" r="1.45" fill="#a3e635" opacity=".8"/><circle cx="30" cy="35" r="1.45" fill="#38bdf8" opacity=".8"/><circle cx="28" cy="42" r="1.45" fill="#7dd3fc" opacity=".8"/><circle cx="29" cy="49" r="1.45" fill="#a3e635" opacity=".8"/><circle cx="30" cy="56" r="1.45" fill="#38bdf8" opacity=".8"/><circle cx="28" cy="63" r="1.45" fill="#7dd3fc" opacity=".8"/><circle cx="29" cy="70" r="1.45" fill="#a3e635" opacity=".8"/><circle cx="30" cy="77" r="1.45" fill="#38bdf8" opacity=".8"/><circle cx="28" cy="84" r="1.45" fill="#7dd3fc" opacity=".8"/><circle cx="29" cy="91" r="1.45" fill="#a3e635" opacity=".8"/><circle cx="30" cy="98" r="1.45" fill="#38bdf8" opacity=".8"/><circle cx="28" cy="105" r="1.45" fill="#7dd3fc" opacity=".8"/><circle cx="35" cy="21" r="1.45" fill="#a3e635" opacity=".8"/><circle cx="36" cy="28" r="1.45" fill="#38bdf8" opacity=".8"/><circle cx="37" cy="35" r="1.45" fill="#7dd3fc" opacity=".8"/><circle cx="35" cy="42" r="1.45" fill="#a3e635" opacity=".8"/><circle cx="36" cy="49" r="1.45" fill="#38bdf8" opacity=".8"/><circle cx="37" cy="56" r="1.45" fill="#7dd3fc" opacity=".8"/><circle cx="35" cy="63" r="1.45" fill="#a3e635" opacity=".8"/><circle cx="36" cy="70" r="1.45" fill="#38bdf8" opacity=".8"/><circle cx="37" cy="77" r="1.45" fill="#7dd3fc" opacity=".8"/><circle cx="35" cy="84" r="1.45" fill="#a3e635" opacity=".8"/><circle cx="36" cy="91" r="1.45" fill="#38bdf8" opacity=".8"/><circle cx="37" cy="98" r="1.45" fill="#7dd3fc" opacity=".8"/><circle cx="35" cy="105" r="1.45" fill="#a3e635" opacity=".8"/><circle cx="42" cy="21" r="1.45" fill="#38bdf8" opacity=".8"/><circle cx="43" cy="28" r="1.45" fill="#7dd3fc" opacity=".8"/><circle cx="44" cy="35" r="1.45" fill="#a3e635" opacity=".8"/><circle cx="42" cy="42" r="1.45" fill="#38bdf8" opacity=".8"/><circle cx="43" cy="49" r="1.45" fill="#7dd3fc" opacity=".8"/><circle cx="44" cy="56" r="1.45" fill="#a3e635" opacity=".8"/><circle cx="42" cy="63" r="1.45" fill="#38bdf8" opacity=".8"/><circle cx="43" cy="70" r="1.45" fill="#7dd3fc" opacity=".8"/><circle cx="44" cy="77" r="1.45" fill="#a3e635" opacity=".8"/><circle cx="42" cy="84" r="1.45" fill="#38bdf8" opacity=".8"/><circle cx="43" cy="91" r="1.45" fill="#7dd3fc" opacity=".8"/><circle cx="44" cy="98" r="1.45" fill="#a3e635" opacity=".8"/><circle cx="42" cy="105" r="1.45" fill="#38bdf8" opacity=".8"/><circle cx="49" cy="21" r="1.45" fill="#7dd3fc" opacity=".8"/><circle cx="50" cy="28" r="1.45" fill="#a3e635" opacity=".8"/><circle cx="51" cy="35" r="1.45" fill="#38bdf8" opacity=".8"/><circle cx="49" cy="42" r="1.45" fill="#7dd3fc" opacity=".8"/><circle cx="50" cy="49" r="1.45" fill="#a3e635" opacity=".8"/><circle cx="51" cy="56" r="1.45" fill="#38bdf8" opacity=".8"/><circle cx="49" cy="63" r="1.45" fill="#7dd3fc" opacity=".8"/><circle cx="50" cy="70" r="1.45" fill="#a3e635" opacity=".8"/><circle cx="51" cy="77" r="1.45" fill="#38bdf8" opacity=".8"/><circle cx="49" cy="84" r="1.45" fill="#7dd3fc" opacity=".8"/><circle cx="50" cy="91" r="1.45" fill="#a3e635" opacity=".8"/><circle cx="51" cy="98" r="1.45" fill="#38bdf8" opacity=".8"/><circle cx="49" cy="105" r="1.45" fill="#7dd3fc" opacity=".8"/><circle cx="58" cy="77" r="1.45" fill="#7dd3fc" opacity=".8"/><circle cx="56" cy="84" r="1.45" fill="#a3e635" opacity=".8"/><circle cx="57" cy="91" r="1.45" fill="#38bdf8" opacity=".8"/><circle cx="58" cy="98" r="1.45" fill="#7dd3fc" opacity=".8"/><circle cx="56" cy="105" r="1.45" fill="#a3e635" opacity=".8"/><circle cx="65" cy="77" r="1.45" fill="#a3e635" opacity=".8"/><circle cx="63" cy="84" r="1.45" fill="#38bdf8" opacity=".8"/><circle cx="64" cy="91" r="1.45" fill="#7dd3fc" opacity=".8"/><circle cx="65" cy="98" r="1.45" fill="#a3e635" opacity=".8"/><circle cx="63" cy="105" r="1.45" fill="#38bdf8" opacity=".8"/><circle cx="72" cy="77" r="1.45" fill="#38bdf8" opacity=".8"/><circle cx="70" cy="84" r="1.45" fill="#7dd3fc" opacity=".8"/><circle cx="71" cy="91" r="1.45" fill="#a3e635" opacity=".8"/><circle cx="72" cy="98" r="1.45" fill="#38bdf8" opacity=".8"/><circle cx="70" cy="105" r="1.45" fill="#7dd3fc" opacity=".8"/><circle cx="79" cy="77" r="1.45" fill="#7dd3fc" opacity=".8"/><circle cx="77" cy="84" r="1.45" fill="#a3e635" opacity=".8"/><circle cx="78" cy="91" r="1.45" fill="#38bdf8" opacity=".8"/><circle cx="79" cy="98" r="1.45" fill="#7dd3fc" opacity=".8"/><circle cx="77" cy="105" r="1.45" fill="#a3e635" opacity=".8"/><circle cx="86" cy="35" r="1.45" fill="#a3e635" opacity=".8"/><circle cx="84" cy="42" r="1.45" fill="#38bdf8" opacity=".8"/><circle cx="85" cy="49" r="1.45" fill="#7dd3fc" opacity=".8"/><circle cx="86" cy="56" r="1.45" fill="#a3e635" opacity=".8"/><circle cx="84" cy="63" r="1.45" fill="#38bdf8" opacity=".8"/><circle cx="85" cy="70" r="1.45" fill="#7dd3fc" opacity=".8"/><circle cx="86" cy="77" r="1.45" fill="#a3e635" opacity=".8"/><circle cx="84" cy="84" r="1.45" fill="#38bdf8" opacity=".8"/><circle cx="85" cy="91" r="1.45" fill="#7dd3fc" opacity=".8"/><circle cx="86" cy="98" r="1.45" fill="#a3e635" opacity=".8"/><circle cx="84" cy="105" r="1.45" fill="#38bdf8" opacity=".8"/><circle cx="93" cy="35" r="1.45" fill="#38bdf8" opacity=".8"/><circle cx="91" cy="42" r="1.45" fill="#7dd3fc" opacity=".8"/><circle cx="92" cy="49" r="1.45" fill="#a3e635" opacity=".8"/><circle cx="93" cy="56" r="1.45" fill="#38bdf8" opacity=".8"/><circle cx="91" cy="63" r="1.45" fill="#7dd3fc" opacity=".8"/><circle cx="92" cy="70" r="1.45" fill="#a3e635" opacity=".8"/><circle cx="93" cy="77" r="1.45" fill="#38bdf8" opacity=".8"/><circle cx="91" cy="84" r="1.45" fill="#7dd3fc" opacity=".8"/><circle cx="92" cy="91" r="1.45" fill="#a3e635" opacity=".8"/><circle cx="93" cy="98" r="1.45" fill="#38bdf8" opacity=".8"/><circle cx="91" cy="105" r="1.45" fill="#7dd3fc" opacity=".8"/><circle cx="100" cy="35" r="1.45" fill="#7dd3fc" opacity=".8"/><circle cx="98" cy="42" r="1.45" fill="#a3e635" opacity=".8"/><circle cx="99" cy="49" r="1.45" fill="#38bdf8" opacity=".8"/><circle cx="100" cy="56" r="1.45" fill="#7dd3fc" opacity=".8"/><circle cx="98" cy="63" r="1.45" fill="#a3e635" opacity=".8"/><circle cx="99" cy="70" r="1.45" fill="#38bdf8" opacity=".8"/><circle cx="100" cy="77" r="1.45" fill="#7dd3fc" opacity=".8"/><circle cx="98" cy="84" r="1.45" fill="#a3e635" opacity=".8"/><circle cx="99" cy="91" r="1.45" fill="#38bdf8" opacity=".8"/><circle cx="100" cy="98" r="1.45" fill="#7dd3fc" opacity=".8"/><circle cx="98" cy="105" r="1.45" fill="#a3e635" opacity=".8"/><circle cx="107" cy="77" r="1.45" fill="#a3e635" opacity=".8"/><circle cx="105" cy="84" r="1.45" fill="#38bdf8" opacity=".8"/><circle cx="106" cy="91" r="1.45" fill="#7dd3fc" opacity=".8"/><circle cx="107" cy="98" r="1.45" fill="#a3e635" opacity=".8"/><circle cx="105" cy="105" r="1.45" fill="#38bdf8" opacity=".8"/><circle cx="114" cy="77" r="1.45" fill="#38bdf8" opacity=".8"/><circle cx="112" cy="84" r="1.45" fill="#7dd3fc" opacity=".8"/><circle cx="113" cy="91" r="1.45" fill="#a3e635" opacity=".8"/><circle cx="114" cy="98" r="1.45" fill="#38bdf8" opacity=".8"/><circle cx="112" cy="105" r="1.45" fill="#7dd3fc" opacity=".8"/><circle cx="120" cy="49" r="1.45" fill="#38bdf8" opacity=".8"/><circle cx="121" cy="56" r="1.45" fill="#7dd3fc" opacity=".8"/><circle cx="119" cy="63" r="1.45" fill="#a3e635" opacity=".8"/><circle cx="120" cy="70" r="1.45" fill="#38bdf8" opacity=".8"/><circle cx="121" cy="77" r="1.45" fill="#7dd3fc" opacity=".8"/><circle cx="119" cy="84" r="1.45" fill="#a3e635" opacity=".8"/><circle cx="120" cy="91" r="1.45" fill="#38bdf8" opacity=".8"/><circle cx="121" cy="98" r="1.45" fill="#7dd3fc" opacity=".8"/><circle cx="119" cy="105" r="1.45" fill="#a3e635" opacity=".8"/><circle cx="127" cy="49" r="1.45" fill="#7dd3fc" opacity=".8"/><circle cx="128" cy="56" r="1.45" fill="#a3e635" opacity=".8"/><circle cx="126" cy="63" r="1.45" fill="#38bdf8" opacity=".8"/><circle cx="127" cy="70" r="1.45" fill="#7dd3fc" opacity=".8"/><circle cx="128" cy="77" r="1.45" fill="#a3e635" opacity=".8"/><circle cx="126" cy="84" r="1.45" fill="#38bdf8" opacity=".8"/><circle cx="127" cy="91" r="1.45" fill="#7dd3fc" opacity=".8"/><circle cx="128" cy="98" r="1.45" fill="#a3e635" opacity=".8"/><circle cx="126" cy="105" r="1.45" fill="#38bdf8" opacity=".8"/><circle cx="134" cy="49" r="1.45" fill="#a3e635" opacity=".8"/><circle cx="135" cy="56" r="1.45" fill="#38bdf8" opacity=".8"/><circle cx="133" cy="63" r="1.45" fill="#7dd3fc" opacity=".8"/><circle cx="134" cy="70" r="1.45" fill="#a3e635" opacity=".8"/><circle cx="135" cy="77" r="1.45" fill="#38bdf8" opacity=".8"/><circle cx="133" cy="84" r="1.45" fill="#7dd3fc" opacity=".8"/><circle cx="134" cy="91" r="1.45" fill="#a3e635" opacity=".8"/><circle cx="135" cy="98" r="1.45" fill="#38bdf8" opacity=".8"/><circle cx="133" cy="105" r="1.45" fill="#7dd3fc" opacity=".8"/><circle cx="142" cy="77" r="1.45" fill="#7dd3fc" opacity=".8"/><circle cx="140" cy="84" r="1.45" fill="#a3e635" opacity=".8"/><circle cx="141" cy="91" r="1.45" fill="#38bdf8" opacity=".8"/><circle cx="142" cy="98" r="1.45" fill="#7dd3fc" opacity=".8"/><circle cx="140" cy="105" r="1.45" fill="#a3e635" opacity=".8"/></g>
<g stroke="#38bdf8" stroke-width="2" fill="none"><path d="M400 235V257H346V279M400 257H454V279M346 301V317H322V334M346 317H370V334M454 301V317H430V334M454 317H478V334"/><path d="M250 265H284M512 265H546" marker-end="url(#arrow)"/></g>
<g stroke="#7dd3fc" fill="#173953"><rect x="387" y="207" width="26" height="28" rx="4"/><rect x="335" y="279" width="22" height="22" rx="3"/><rect x="443" y="279" width="22" height="22" rx="3"/></g>
<g fill="#a3e635"><rect x="314" y="334" width="16" height="16" rx="3"/><rect x="362" y="334" width="16" height="16" rx="3"/><rect x="422" y="334" width="16" height="16" rx="3"/><rect x="470" y="334" width="16" height="16" rx="3"/></g>
<rect x="574" y="209" width="176" height="127" rx="6" fill="#091526" stroke="#446581"/>
<g transform="translate(582 216) scale(.93)"><circle cx="23" cy="77" r="1.45" fill="#a3e635" opacity=".8"/><circle cx="21" cy="84" r="1.45" fill="#38bdf8" opacity=".8"/><circle cx="22" cy="91" r="1.45" fill="#7dd3fc" opacity=".8"/><circle cx="23" cy="98" r="1.45" fill="#a3e635" opacity=".8"/><circle cx="21" cy="105" r="1.45" fill="#38bdf8" opacity=".8"/><circle cx="28" cy="21" r="1.45" fill="#7dd3fc" opacity=".8"/><circle cx="29" cy="28" r="1.45" fill="#a3e635" opacity=".8"/><circle cx="30" cy="35" r="1.45" fill="#38bdf8" opacity=".8"/><circle cx="28" cy="42" r="1.45" fill="#7dd3fc" opacity=".8"/><circle cx="29" cy="49" r="1.45" fill="#a3e635" opacity=".8"/><circle cx="30" cy="56" r="1.45" fill="#38bdf8" opacity=".8"/><circle cx="28" cy="63" r="1.45" fill="#7dd3fc" opacity=".8"/><circle cx="29" cy="70" r="1.45" fill="#a3e635" opacity=".8"/><circle cx="30" cy="77" r="1.45" fill="#38bdf8" opacity=".8"/><circle cx="28" cy="84" r="1.45" fill="#7dd3fc" opacity=".8"/><circle cx="29" cy="91" r="1.45" fill="#a3e635" opacity=".8"/><circle cx="30" cy="98" r="1.45" fill="#38bdf8" opacity=".8"/><circle cx="28" cy="105" r="1.45" fill="#7dd3fc" opacity=".8"/><circle cx="35" cy="21" r="1.45" fill="#a3e635" opacity=".8"/><circle cx="36" cy="28" r="1.45" fill="#38bdf8" opacity=".8"/><circle cx="37" cy="35" r="1.45" fill="#7dd3fc" opacity=".8"/><circle cx="35" cy="42" r="1.45" fill="#a3e635" opacity=".8"/><circle cx="36" cy="49" r="1.45" fill="#38bdf8" opacity=".8"/><circle cx="37" cy="56" r="1.45" fill="#7dd3fc" opacity=".8"/><circle cx="35" cy="63" r="1.45" fill="#a3e635" opacity=".8"/><circle cx="36" cy="70" r="1.45" fill="#38bdf8" opacity=".8"/><circle cx="37" cy="77" r="1.45" fill="#7dd3fc" opacity=".8"/><circle cx="35" cy="84" r="1.45" fill="#a3e635" opacity=".8"/><circle cx="36" cy="91" r="1.45" fill="#38bdf8" opacity=".8"/><circle cx="37" cy="98" r="1.45" fill="#7dd3fc" opacity=".8"/><circle cx="35" cy="105" r="1.45" fill="#a3e635" opacity=".8"/><circle cx="42" cy="21" r="1.45" fill="#38bdf8" opacity=".8"/><circle cx="43" cy="28" r="1.45" fill="#7dd3fc" opacity=".8"/><circle cx="44" cy="35" r="1.45" fill="#a3e635" opacity=".8"/><circle cx="42" cy="42" r="1.45" fill="#38bdf8" opacity=".8"/><circle cx="43" cy="49" r="1.45" fill="#7dd3fc" opacity=".8"/><circle cx="44" cy="56" r="1.45" fill="#a3e635" opacity=".8"/><circle cx="42" cy="63" r="1.45" fill="#38bdf8" opacity=".8"/><circle cx="43" cy="70" r="1.45" fill="#7dd3fc" opacity=".8"/><circle cx="44" cy="77" r="1.45" fill="#a3e635" opacity=".8"/><circle cx="42" cy="84" r="1.45" fill="#38bdf8" opacity=".8"/><circle cx="43" cy="91" r="1.45" fill="#7dd3fc" opacity=".8"/><circle cx="44" cy="98" r="1.45" fill="#a3e635" opacity=".8"/><circle cx="42" cy="105" r="1.45" fill="#38bdf8" opacity=".8"/><circle cx="49" cy="21" r="1.45" fill="#7dd3fc" opacity=".8"/><circle cx="50" cy="28" r="1.45" fill="#a3e635" opacity=".8"/><circle cx="51" cy="35" r="1.45" fill="#38bdf8" opacity=".8"/><circle cx="49" cy="42" r="1.45" fill="#7dd3fc" opacity=".8"/><circle cx="50" cy="49" r="1.45" fill="#a3e635" opacity=".8"/><circle cx="51" cy="56" r="1.45" fill="#38bdf8" opacity=".8"/><circle cx="49" cy="63" r="1.45" fill="#7dd3fc" opacity=".8"/><circle cx="50" cy="70" r="1.45" fill="#a3e635" opacity=".8"/><circle cx="51" cy="77" r="1.45" fill="#38bdf8" opacity=".8"/><circle cx="49" cy="84" r="1.45" fill="#7dd3fc" opacity=".8"/><circle cx="50" cy="91" r="1.45" fill="#a3e635" opacity=".8"/><circle cx="51" cy="98" r="1.45" fill="#38bdf8" opacity=".8"/><circle cx="49" cy="105" r="1.45" fill="#7dd3fc" opacity=".8"/><circle cx="58" cy="77" r="1.45" fill="#7dd3fc" opacity=".8"/><circle cx="56" cy="84" r="1.45" fill="#a3e635" opacity=".8"/><circle cx="57" cy="91" r="1.45" fill="#38bdf8" opacity=".8"/><circle cx="58" cy="98" r="1.45" fill="#7dd3fc" opacity=".8"/><circle cx="56" cy="105" r="1.45" fill="#a3e635" opacity=".8"/><circle cx="65" cy="77" r="1.45" fill="#a3e635" opacity=".8"/><circle cx="63" cy="84" r="1.45" fill="#38bdf8" opacity=".8"/><circle cx="64" cy="91" r="1.45" fill="#7dd3fc" opacity=".8"/><circle cx="65" cy="98" r="1.45" fill="#a3e635" opacity=".8"/><circle cx="63" cy="105" r="1.45" fill="#38bdf8" opacity=".8"/><circle cx="72" cy="77" r="1.45" fill="#38bdf8" opacity=".8"/><circle cx="70" cy="84" r="1.45" fill="#7dd3fc" opacity=".8"/><circle cx="71" cy="91" r="1.45" fill="#a3e635" opacity=".8"/><circle cx="72" cy="98" r="1.45" fill="#38bdf8" opacity=".8"/><circle cx="70" cy="105" r="1.45" fill="#7dd3fc" opacity=".8"/><circle cx="79" cy="77" r="1.45" fill="#7dd3fc" opacity=".8"/><circle cx="77" cy="84" r="1.45" fill="#a3e635" opacity=".8"/><circle cx="78" cy="91" r="1.45" fill="#38bdf8" opacity=".8"/><circle cx="79" cy="98" r="1.45" fill="#7dd3fc" opacity=".8"/><circle cx="77" cy="105" r="1.45" fill="#a3e635" opacity=".8"/><circle cx="86" cy="35" r="1.45" fill="#a3e635" opacity=".8"/><circle cx="84" cy="42" r="1.45" fill="#38bdf8" opacity=".8"/><circle cx="85" cy="49" r="1.45" fill="#7dd3fc" opacity=".8"/><circle cx="86" cy="56" r="1.45" fill="#a3e635" opacity=".8"/><circle cx="84" cy="63" r="1.45" fill="#38bdf8" opacity=".8"/><circle cx="85" cy="70" r="1.45" fill="#7dd3fc" opacity=".8"/><circle cx="86" cy="77" r="1.45" fill="#a3e635" opacity=".8"/><circle cx="84" cy="84" r="1.45" fill="#38bdf8" opacity=".8"/><circle cx="85" cy="91" r="1.45" fill="#7dd3fc" opacity=".8"/><circle cx="86" cy="98" r="1.45" fill="#a3e635" opacity=".8"/><circle cx="84" cy="105" r="1.45" fill="#38bdf8" opacity=".8"/><circle cx="93" cy="35" r="1.45" fill="#38bdf8" opacity=".8"/><circle cx="91" cy="42" r="1.45" fill="#7dd3fc" opacity=".8"/><circle cx="92" cy="49" r="1.45" fill="#a3e635" opacity=".8"/><circle cx="93" cy="56" r="1.45" fill="#38bdf8" opacity=".8"/><circle cx="91" cy="63" r="1.45" fill="#7dd3fc" opacity=".8"/><circle cx="92" cy="70" r="1.45" fill="#a3e635" opacity=".8"/><circle cx="93" cy="77" r="1.45" fill="#38bdf8" opacity=".8"/><circle cx="91" cy="84" r="1.45" fill="#7dd3fc" opacity=".8"/><circle cx="92" cy="91" r="1.45" fill="#a3e635" opacity=".8"/><circle cx="93" cy="98" r="1.45" fill="#38bdf8" opacity=".8"/><circle cx="91" cy="105" r="1.45" fill="#7dd3fc" opacity=".8"/><circle cx="100" cy="35" r="1.45" fill="#7dd3fc" opacity=".8"/><circle cx="98" cy="42" r="1.45" fill="#a3e635" opacity=".8"/><circle cx="99" cy="49" r="1.45" fill="#38bdf8" opacity=".8"/><circle cx="100" cy="56" r="1.45" fill="#7dd3fc" opacity=".8"/><circle cx="98" cy="63" r="1.45" fill="#a3e635" opacity=".8"/><circle cx="99" cy="70" r="1.45" fill="#38bdf8" opacity=".8"/><circle cx="100" cy="77" r="1.45" fill="#7dd3fc" opacity=".8"/><circle cx="98" cy="84" r="1.45" fill="#a3e635" opacity=".8"/><circle cx="99" cy="91" r="1.45" fill="#38bdf8" opacity=".8"/><circle cx="100" cy="98" r="1.45" fill="#7dd3fc" opacity=".8"/><circle cx="98" cy="105" r="1.45" fill="#a3e635" opacity=".8"/><circle cx="107" cy="77" r="1.45" fill="#a3e635" opacity=".8"/><circle cx="105" cy="84" r="1.45" fill="#38bdf8" opacity=".8"/><circle cx="106" cy="91" r="1.45" fill="#7dd3fc" opacity=".8"/><circle cx="107" cy="98" r="1.45" fill="#a3e635" opacity=".8"/><circle cx="105" cy="105" r="1.45" fill="#38bdf8" opacity=".8"/><circle cx="114" cy="77" r="1.45" fill="#38bdf8" opacity=".8"/><circle cx="112" cy="84" r="1.45" fill="#7dd3fc" opacity=".8"/><circle cx="113" cy="91" r="1.45" fill="#a3e635" opacity=".8"/><circle cx="114" cy="98" r="1.45" fill="#38bdf8" opacity=".8"/><circle cx="112" cy="105" r="1.45" fill="#7dd3fc" opacity=".8"/><circle cx="120" cy="49" r="1.45" fill="#38bdf8" opacity=".8"/><circle cx="121" cy="56" r="1.45" fill="#7dd3fc" opacity=".8"/><circle cx="119" cy="63" r="1.45" fill="#a3e635" opacity=".8"/><circle cx="120" cy="70" r="1.45" fill="#38bdf8" opacity=".8"/><circle cx="121" cy="77" r="1.45" fill="#7dd3fc" opacity=".8"/><circle cx="119" cy="84" r="1.45" fill="#a3e635" opacity=".8"/><circle cx="120" cy="91" r="1.45" fill="#38bdf8" opacity=".8"/><circle cx="121" cy="98" r="1.45" fill="#7dd3fc" opacity=".8"/><circle cx="119" cy="105" r="1.45" fill="#a3e635" opacity=".8"/><circle cx="127" cy="49" r="1.45" fill="#7dd3fc" opacity=".8"/><circle cx="128" cy="56" r="1.45" fill="#a3e635" opacity=".8"/><circle cx="126" cy="63" r="1.45" fill="#38bdf8" opacity=".8"/><circle cx="127" cy="70" r="1.45" fill="#7dd3fc" opacity=".8"/><circle cx="128" cy="77" r="1.45" fill="#a3e635" opacity=".8"/><circle cx="126" cy="84" r="1.45" fill="#38bdf8" opacity=".8"/><circle cx="127" cy="91" r="1.45" fill="#7dd3fc" opacity=".8"/><circle cx="128" cy="98" r="1.45" fill="#a3e635" opacity=".8"/><circle cx="126" cy="105" r="1.45" fill="#38bdf8" opacity=".8"/><circle cx="134" cy="49" r="1.45" fill="#a3e635" opacity=".8"/><circle cx="135" cy="56" r="1.45" fill="#38bdf8" opacity=".8"/><circle cx="133" cy="63" r="1.45" fill="#7dd3fc" opacity=".8"/><circle cx="134" cy="70" r="1.45" fill="#a3e635" opacity=".8"/><circle cx="135" cy="77" r="1.45" fill="#38bdf8" opacity=".8"/><circle cx="133" cy="84" r="1.45" fill="#7dd3fc" opacity=".8"/><circle cx="134" cy="91" r="1.45" fill="#a3e635" opacity=".8"/><circle cx="135" cy="98" r="1.45" fill="#38bdf8" opacity=".8"/><circle cx="133" cy="105" r="1.45" fill="#7dd3fc" opacity=".8"/><circle cx="142" cy="77" r="1.45" fill="#7dd3fc" opacity=".8"/><circle cx="140" cy="84" r="1.45" fill="#a3e635" opacity=".8"/><circle cx="141" cy="91" r="1.45" fill="#38bdf8" opacity=".8"/><circle cx="142" cy="98" r="1.45" fill="#7dd3fc" opacity=".8"/><circle cx="140" cy="105" r="1.45" fill="#a3e635" opacity=".8"/></g>
<rect x="650" y="237" width="68" height="71" rx="3" fill="#38bdf8" fill-opacity=".06" stroke="#a3e635" stroke-width="2"/>
<path d="M661 337V350M633 350H690" stroke="#446581" stroke-width="4"/>
<g font-size="16" fill="#cbd5e1" text-anchor="middle"><text x="138" y="365">Original-point links</text><text x="400" y="365">Coarse to detailed</text><text x="662" y="365">Visible regions first</text></g>
<rect x="32" y="409" width="736" height="57" rx="9" fill="#38bdf8" fill-opacity=".08"/>
<circle cx="58" cy="438" r="5" fill="#a3e635"/><text x="76" y="444" fill="#e2e8f0" font-size="18">Stream the needed 3D data. Render directly on the client.</text>
</g></svg>
