<svg xmlns="http://www.w3.org/2000/svg" width="1200" height="760" viewBox="0 0 1200 760" role="img" aria-labelledby="title desc">
  <title id="title">Research-derived cargo hold AI recognition visual</title>
  <desc id="desc">A web visual inspired by LNGC cargo-hold scaffolding object detection and 3D deep learning dataset research.</desc>
  <defs>
    <linearGradient id="bg" x1="0" y1="0" x2="1" y2="1"><stop offset="0" stop-color="#0A0C0D"/><stop offset="1" stop-color="#222823"/></linearGradient>
    <pattern id="grid" width="42" height="42" patternUnits="userSpaceOnUse"><path d="M42 0H0V42" fill="none" stroke="#D7FF38" stroke-opacity=".07"/></pattern>
  </defs>
  <rect width="1200" height="760" fill="url(#bg)"/>
  <rect width="1200" height="760" fill="url(#grid)"/>
  <path d="M190 165h690l130 120v310H190V165Z" fill="#15191A" stroke="#F4F5F0" stroke-opacity=".24" stroke-width="2"/>
  <path d="M190 165 320 285h690M320 285v310" stroke="#F4F5F0" stroke-opacity=".2" stroke-width="2"/>
  <g fill="none" stroke="#D7FF38" stroke-width="3">
    <rect x="390" y="330" width="96" height="172" rx="6"/>
    <rect x="558" y="305" width="88" height="218" rx="6"/>
    <rect x="718" y="350" width="122" height="150" rx="6"/>
  </g>
  <g stroke="#F4F5F0" stroke-opacity=".32" stroke-width="2">
    <path d="M438 330v172M390 372h96M390 420h96M390 468h96"/>
    <path d="M602 305v218M558 360h88M558 418h88M558 476h88"/>
    <path d="M779 350v150M718 400h122M718 452h122"/>
  </g>
  <g fill="#D7FF38" opacity=".9">
    <circle cx="346" cy="316" r="4"/><circle cx="480" cy="294" r="3"/><circle cx="620" cy="286" r="4"/><circle cx="760" cy="315" r="3"/><circle cx="900" cy="348" r="4"/>
    <circle cx="356" cy="524" r="3"/><circle cx="512" cy="550" r="4"/><circle cx="678" cy="548" r="3"/><circle cx="832" cy="525" r="4"/><circle cx="936" cy="490" r="3"/>
  </g>
  <g font-family="Inter, Arial, sans-serif" font-weight="850">
    <rect x="360" y="286" width="150" height="34" rx="17" fill="#D7FF38"/>
    <text x="379" y="309" fill="#0A0C0D" font-size="16">scaffold_01</text>
    <rect x="540" y="260" width="144" height="34" rx="17" fill="#D7FF38"/>
    <text x="559" y="283" fill="#0A0C0D" font-size="16">support_03</text>
    <rect x="700" y="512" width="150" height="34" rx="17" fill="#D7FF38"/>
    <text x="720" y="535" fill="#0A0C0D" font-size="16">work zone</text>
  </g>
  <g transform="translate(770 84)">
    <rect width="312" height="128" rx="16" fill="#F4F5F0" fill-opacity=".08" stroke="#F4F5F0" stroke-opacity=".16"/>
    <text x="22" y="38" fill="#D7FF38" font-family="Inter, Arial, sans-serif" font-size="15" font-weight="900">MODEL OUTPUT</text>
    <text x="22" y="74" fill="#F4F5F0" font-family="Inter, Arial, sans-serif" font-size="23" font-weight="850">Segmentation + labels</text>
    <text x="22" y="102" fill="#F4F5F0" fill-opacity=".66" font-family="Inter, Arial, sans-serif" font-size="15">LNGC / shipyard dataset</text>
  </g>
</svg>
